HIERARCHY
ROOT Hips
{
 OFFSET 0.000000 0.000000 0.000000
 CHANNELS 6 Xposition Yposition Zposition Yrotation Xrotation Zrotation
 JOINT Chest
 {
  OFFSET 0.000000 9.585900 0.002600
  CHANNELS 3 Yrotation Xrotation Zrotation
  JOINT Chest2
  {
   OFFSET 0.000000 9.601200 -0.005300
   CHANNELS 3 Yrotation Xrotation Zrotation
   JOINT Chest3
   {
    OFFSET 0.000000 9.561800 0.000000
    CHANNELS 3 Yrotation Xrotation Zrotation
    JOINT Chest4
    {
     OFFSET 0.000000 9.552100 0.000000
     CHANNELS 3 Yrotation Xrotation Zrotation
     JOINT Neck
     {
      OFFSET 0.000000 14.453000 0.000000
      CHANNELS 3 Yrotation Xrotation Zrotation
      JOINT Head
      {
       OFFSET 0.000000 8.936500 -0.011300
       CHANNELS 3 Yrotation Xrotation Zrotation
       End Site
       {
        OFFSET 0.000000 17.073600 -0.006000
       }
      }
     }
     JOINT RightCollar
     {
      OFFSET -2.921100 9.558500 0.000000
      CHANNELS 3 Yrotation Xrotation Zrotation
      JOINT RightShoulder
      {
       OFFSET -13.519700 0.000000 0.000000
       CHANNELS 3 Yrotation Xrotation Zrotation
       JOINT RightElbow
       {
        OFFSET 0.000000 -29.696600 0.000000
        CHANNELS 3 Yrotation Xrotation Zrotation
        JOINT RightWrist
        {
         OFFSET 0.000000 -24.004700 0.000000
         CHANNELS 3 Yrotation Xrotation Zrotation
         End Site
         {
          OFFSET 0.000000 -17.728500 0.000000
         }
        }
       }
      }
     }
     JOINT LeftCollar
     {
      OFFSET 2.921100 9.558500 0.000000
      CHANNELS 3 Yrotation Xrotation Zrotation
      JOINT LeftShoulder
      {
       OFFSET 13.519700 0.000000 0.000000
       CHANNELS 3 Yrotation Xrotation Zrotation
       JOINT LeftElbow
       {
        OFFSET 0.000000 -29.696600 0.000000
        CHANNELS 3 Yrotation Xrotation Zrotation
        JOINT LeftWrist
        {
         OFFSET 0.000000 -24.004700 0.000000
         CHANNELS 3 Yrotation Xrotation Zrotation
         End Site
         {
          OFFSET 0.000000 -17.728500 0.000000
         }
        }
       }
      }
     }
    }
   }
  }
 }
 JOINT RightHip
 {
  OFFSET -7.771700 -0.012900 -0.001300
  CHANNELS 3 Yrotation Xrotation Zrotation
  JOINT RightKnee
  {
   OFFSET 0.000000 -40.869800 0.001200
   CHANNELS 3 Yrotation Xrotation Zrotation
   JOINT RightAnkle
   {
    OFFSET 0.000000 -39.717900 0.002100
    CHANNELS 3 Yrotation Xrotation Zrotation
    JOINT RightToe
    {
     OFFSET 0.000000 -4.965400 11.033500
     CHANNELS 3 Yrotation Xrotation Zrotation
     End Site
     {
      OFFSET 0.000000 -1.423100 5.872300
     }
    }
   }
  }
 }
 JOINT LeftHip
 {
  OFFSET 7.771700 -0.012900 -0.001300
  CHANNELS 3 Yrotation Xrotation Zrotation
  JOINT LeftKnee
  {
   OFFSET 0.000000 -40.869800 0.001200
   CHANNELS 3 Yrotation Xrotation Zrotation
   JOINT LeftAnkle
   {
    OFFSET 0.000000 -39.717900 0.002100
    CHANNELS 3 Yrotation Xrotation Zrotation
    JOINT LeftToe
    {
     OFFSET 0.000000 -4.965400 11.033500
     CHANNELS 3 Yrotation Xrotation Zrotation
     End Site
     {
      OFFSET 0.000000 -1.423100 5.872300
     }
    }
   }
  }
 }
}
MOTION
Frames: 17
Frame Time: 0.008333
-58.631959 62.004964 15.393027 174.635051 -53.122712 -0.716136 4.469746 27.519211 1.604014 0.707827 4.883536 0.135619 1.106930 7.719141 0.245334 3.458894 22.316936 1.177850 1.824994 16.148763 2.269358 2.593020 -5.865093 3.554450 7.347024 5.966866 5.374431 -3.345495 -13.984346 -13.904891 -77.913258 -48.960948 123.425310 -2.064522 5.110184 -3.602031 -10.865392 3.232748 -0.968994 -1.067548 -12.188689 17.252966 66.038914 -46.349585 -111.297305 21.941379 1.368936 14.343051 0.289685 -14.044884 -2.679292 -4.358958 63.240911 -7.316034 1.079279 -6.079351 7.339155 0.006802 -0.106204 0.002620 -3.160177 -11.792015 5.922666 25.579126 75.142829 27.248345 0.884058 -9.508145 -5.158571 0.020337 0.113820 0.013354
-58.631731 62.004618 15.390945 174.629863 -53.120299 -0.706180 4.462287 27.522070 1.596329 0.699967 4.888521 0.135539 1.112805 7.713842 0.241905 3.452019 22.318911 1.172027 1.831629 16.130731 2.264034 2.604137 -5.897413 3.544503 7.362628 5.945851 5.366948 -3.336153 -13.973448 -13.905290 -78.000926 -49.047830 123.468533 -2.019271 5.145647 -3.660503 -10.876256 3.214033 -0.972949 -1.062333 -12.178296 17.264936 65.925966 -46.380333 -111.260562 21.922777 1.405140 14.373064 0.292437 -14.048973 -2.683008 -4.342220 63.249183 -7.301864 1.066730 -6.086859 7.331711 0.009923 -0.103141 0.008697 -3.160379 -11.793006 5.919158 25.585401 75.145112 27.248047 0.886628 -9.512424 -5.156473 0.017511 0.114994 0.011712
-58.630933 62.003484 15.389304 174.622368 -53.113805 -0.696873 4.456537 27.520628 1.591672 0.700365 4.886761 0.133292 1.112101 7.713551 0.240596 3.450563 22.320873 1.166555 1.829703 16.103537 2.259393 2.614585 -5.896103 3.542376 7.373283 5.927638 5.363501 -3.326741 -13.968707 -13.910627 -78.093247 -49.127040 123.510597 -1.970107 5.189425 -3.715231 -10.889930 3.193830 -0.976949 -1.112493 -12.168276 17.298868 65.925903 -46.374472 -111.224804 21.888671 1.502459 14.395922 0.299009 -14.059132 -2.681357 -4.337744 63.257323 -7.300173 1.054728 -6.089505 7.327377 0.013186 -0.103902 0.013094 -3.162305 -11.798849 5.922560 25.580584 75.148136 27.234221 0.885302 -9.514024 -5.154659 0.018652 0.114719 0.011027
-58.630067 62.001643 15.388115 174.609816 -53.103359 -0.683542 4.454669 27.515634 1.587612 0.703799 4.882622 0.129764 1.111858 7.713440 0.240155 3.439027 22.322676 1.162686 1.831959 16.084856 2.255555 2.626793 -5.900119 3.536075 7.388235 5.916240 5.359279 -3.316239 -13.969661 -13.918267 -78.192675 -49.203461 123.552633 -1.915111 5.240284 -3.766484 -10.902479 3.177900 -0.981460 -1.196346 -12.159579 17.350160 65.963213 -46.355766 -111.185566 21.853845 1.568634 14.419944 0.308697 -14.072349 -2.682558 -4.342368 63.261737 -7.304950 1.053488 -6.092482 7.326737 0.016366 -0.101139 0.011436 -3.159432 -11.810573 5.923564 25.601541 75.154056 27.248994 0.884136 -9.519361 -5.154041 0.017023 0.114976 0.009750
-58.629053 61.999370 15.387239 174.603374 -53.090967 -0.676117 4.449931 27.509047 1.583291 0.704361 4.882313 0.132151 1.108780 7.712056 0.238958 3.429836 22.322113 1.157967 1.838840 16.075979 2.247859 2.628884 -5.973555 3.507842 7.401566 5.904538 5.348562 -3.315394 -13.961981 -13.917535 -78.245064 -49.243187 123.578397 -1.801759 5.290441 -3.825715 -10.908666 3.161066 -0.988419 -1.191154 -12.147283 17.355985 65.902310 -46.402410 -111.163290 21.829170 1.595516 14.445890 0.316659 -14.091136 -2.681428 -4.349269 63.270258 -7.312554 1.052557 -6.088401 7.326891 0.016839 -0.106551 0.012173 -3.159161 -11.824030 5.925955 25.622604 75.157277 27.265362 0.879143 -9.524873 -5.154171 0.019358 0.116344 0.009372
-58.627738 61.998001 15.385785 174.601607 -53.086068 -0.674355 4.443940 27.510232 1.580949 0.701579 4.879393 0.131695 1.100741 7.715075 0.238561 3.417303 22.321453 1.153649 1.855974 16.064738 2.235594 2.632158 -5.986080 3.499393 7.425230 5.890288 5.333426 -3.313125 -13.969963 -13.918118 -78.361933 -49.339897 123.630608 -1.765767 5.358183 -3.870057 -10.905067 3.145243 -0.999535 -1.224101 -12.136602 17.384189 65.847065 -46.493948 -111.122876 21.841006 1.575089 14.467849 0.317706 -14.098098 -2.682304 -4.352983 63.274398 -7.312399 1.056153 -6.088902 7.321870 0.016246 -0.108178 0.013210 -3.160064 -11.828387 5.930589 25.632353 75.159921 27.269845 0.878765 -9.532363 -5.153910 0.018352 0.119797 0.009923
-58.626776 61.996473 15.384562 174.598038 -53.080337 -0.669971 4.438729 27.510037 1.577514 0.695650 4.884231 0.131985 1.109781 7.706627 0.235547 3.410606 22.323572 1.154716 1.853254 16.051028 2.226534 2.638513 -5.995407 3.491866 7.433396 5.879199 5.325580 -3.310899 -13.994681 -13.924882 -78.466525 -49.427957 123.670079 -1.727157 5.431936 -3.927804 -10.921665 3.132337 -1.006905 -1.246540 -12.127021 17.410652 65.850375 -46.525799 -111.101644 21.797831 1.614539 14.491188 0.318482 -14.107662 -2.682660 -4.357527 63.279350 -7.316227 1.055328 -6.083371 7.321886 0.018772 -0.113043 0.010322 -3.158544 -11.833756 5.932183 25.652754 75.158884 27.285477 0.880807 -9.536749 -5.155485 0.012307 0.122311 0.011847
-58.626477 61.994779 15.383608 174.594239 -53.073293 -0.662574 4.431339 27.508128 1.569696 0.693089 4.884376 0.132237 1.110669 7.706102 0.236373 3.404378 22.320641 1.150236 1.847333 16.023402 2.215419 2.650058 -6.007351 3.476915 7.444554 5.870942 5.317444 -3.311095 -14.010464 -13.921973 -78.494586 -49.463947 123.669617 -1.607489 5.502121 -4.016053 -10.941844 3.118462 -1.012628 -1.260722 -12.112236 17.431151 65.871830 -46.547734 -111.086937 21.733318 1.661266 14.516733 0.313487 -14.121153 -2.685018 -4.363749 63.288842 -7.330388 1.064446 -6.081282 7.323252 0.013313 -0.117829 0.008623 -3.156778 -11.841005 5.929214 25.670774 75.157403 27.305163 0.874297 -9.538169 -5.161675 0.018460 0.122318 0.013614
-58.625435 61.993710 15.382531 174.592008 -53.070443 -0.661801 4.424611 27.510353 1.567756 0.691847 4.882848 0.131729 1.111456 7.705268 0.235310 3.393719 22.317396 1.147768 1.852197 16.007275 2.205534 2.656459 -6.082157 3.439847 7.458476 5.867607 5.309346 -3.311171 -14.025043 -13.914896 -78.524700 -49.504902 123.675056 -1.492303 5.587568 -4.121703 -10.935231 3.114232 -1.017863 -1.285049 -12.103790 17.446275 65.870044 -46.683135 -111.059732 21.756078 1.658696 14.521234 0.313149 -14.125460 -2.682757 -4.365985 63.290965 -7.333870 1.066961 -6.080457 7.322865 0.013645 -0.116919 0.008404 -3.162307 -11.842256 5.935502 25.675941 75.157535 27.305232 0.867601 -9.540659 -5.166280 0.023811 0.122990 0.015359
-58.624567 61.992637 15.381736 174.588018 -53.067003 -0.659815 4.417714 27.512752 1.567216 0.692974 4.880053 0.130229 1.107259 7.702293 0.232542 3.387907 22.317552 1.148361 1.855005 15.990412 2.194933 2.665248 -6.113473 3.419042 7.471774 5.867580 5.301195 -3.313449 -14.042465 -13.905773 -78.660085 -49.621898 123.739689 -1.480861 5.704499 -4.215429 -10.937716 3.109010 -1.027442 -1.302542 -12.091966 17.464450 65.895903 -46.782214 -111.049951 21.800467 1.650093 14.517454 0.309696 -14.130948 -2.680960 -4.356323 63.293192 -7.328002 1.067494 -6.079663 7.321338 0.009374 -0.115468 0.006941 -3.161820 -11.845027 5.938767 25.675438 75.159999 27.305323 0.866320 -9.544781 -5.169961 0.025921 0.123855 0.015100
-58.624695 61.990074 15.382310 174.576916 -53.051443 -0.648114 4.413296 27.503549 1.563144 0.697999 4.875331 0.126428 1.097788 7.703518 0.234897 3.389317 22.316131 1.144398 1.851095 15.972992 2.187943 2.674056 -6.120868 3.407882 7.473324 5.861143 5.294942 -3.310416 -14.044075 -13.899846 -78.734907 -49.682287 123.775758 -1.405054 5.820307 -4.324013 -10.949694 3.104081 -1.029751 -1.316182 -12.076325 17.474559 65.936692 -46.866403 -111.043274 21.828654 1.657184 14.513132 0.312410 -14.151587 -2.682597 -4.347628 63.298062 -7.324270 1.066000 -6.078482 7.320570 0.009134 -0.113948 0.006647 -3.155177 -11.860533 5.937310 25.653832 75.163389 27.286715 0.869341 -9.549259 -5.172951 0.028723 0.127179 0.015381
-58.625793 61.988873 15.382068 174.579116 -53.045168 -0.642074 4.403856 27.500784 1.554639 0.690834 4.877968 0.128032 1.095177 7.701876 0.234289 3.390333 22.313980 1.139617 1.849716 15.959205 2.180339 2.680478 -6.171617 3.375437 7.478072 5.855420 5.289495 -3.308780 -14.046375 -13.893555 -78.743092 -49.700740 123.773734 -1.279034 5.927130 -4.445947 -10.967166 3.104609 -1.033887 -1.337403 -12.049436 17.493752 66.013103 -46.949325 -111.051330 21.709087 1.747134 14.568619 0.311012 -14.159355 -2.691635 -4.337670 63.300839 -7.316092 1.065855 -6.080798 7.319984 0.008860 -0.111102 0.006115 -3.155614 -11.866761 5.929036 25.615352 75.162663 27.248776 0.879386 -9.544885 -5.171705 0.025963 0.127185 0.013975
-58.626633 61.988002 15.381917 174.581728 -53.040282 -0.639326 4.397069 27.498702 1.550567 0.677439 4.884387 0.135676 1.099956 7.695421 0.227404 3.379772 22.313090 1.136195 1.859753 15.954689 2.169065 2.682330 -6.231013 3.340610 7.499781 5.850345 5.277373 -3.308023 -14.055286 -13.880839 -78.785528 -49.752195 123.775750 -1.196887 6.035265 -4.560086 -10.959165 3.103996 -1.043285 -1.346746 -12.037504 17.500175 66.044909 -46.992310 -111.054508 21.608978 1.803740 14.622171 0.306992 -14.166729 -2.698584 -4.326546 63.304467 -7.306971 1.069025 -6.079804 7.318263 0.007295 -0.111913 0.005730 -3.157735 -11.872049 5.922293 25.598474 75.164558 27.234715 0.885429 -9.545048 -5.174130 0.026416 0.127732 0.013588
-58.627397 61.987371 15.381890 174.583986 -53.035918 -0.638243 4.378483 27.505891 1.548440 0.681071 4.879509 0.132109 1.098334 7.693280 0.227587 3.361695 22.315528 1.143316 1.868193 15.933941 2.142005 2.689687 -6.265082 3.310618 7.523768 5.844522 5.252838 -3.308059 -14.073142 -13.862763 -78.818558 -49.810714 123.765914 -1.121223 6.138794 -4.667443 -10.952496 3.097743 -1.065507 -1.343918 -12.028887 17.501729 66.083265 -47.099121 -111.053365 21.603348 1.829240 14.646943 0.305577 -14.173037 -2.701702 -4.320947 63.309346 -7.302467 1.069007 -6.080470 7.315486 0.007252 -0.110150 0.005646 -3.160589 -11.876969 5.918171 25.592011 75.166209 27.229338 0.888176 -9.545904 -5.174971 0.026971 0.128224 0.012509
-58.628986 61.985314 15.383142 174.587972 -53.019306 -0.635676 4.370118 27.491731 1.540942 0.673122 4.883486 0.135812 1.095916 7.692682 0.228250 3.365463 22.311844 1.136168 1.850732 15.901725 2.135991 2.711231 -6.283206 3.278179 7.527610 5.839293 5.251671 -3.302634 -14.079635 -13.853630 -78.915606 -49.900912 123.801240 -1.104334 6.237334 -4.759599 -10.968589 3.104037 -1.062057 -1.336535 -12.023418 17.496178 66.128923 -47.206823 -111.059167 21.598681 1.849994 14.671396 0.305818 -14.194028 -2.707743 -4.324647 63.314970 -7.305729 1.069719 -6.078626 7.312500 0.007620 -0.111331 0.007431 -3.164794 -11.894707 5.912771 25.579043 75.169410 27.215698 0.890077 -9.552302 -5.173900 0.028738 0.133657 0.011065
-58.630043 61.984968 15.383393 174.589831 -53.014015 -0.635045 4.357615 27.494068 1.538135 0.677078 4.879037 0.133565 1.086392 7.695046 0.230747 3.354804 22.311479 1.134390 1.856485 15.882883 2.118334 2.725956 -6.318313 3.247787 7.549333 5.833128 5.239230 -3.301665 -14.079678 -13.851792 -78.978090 -49.955996 123.818344 -1.070684 6.316716 -4.841581 -10.968884 3.100222 -1.071155 -1.327225 -12.014322 17.492076 66.174395 -47.290409 -111.064952 21.570891 1.877017 14.684484 0.305795 -14.199869 -2.709477 -4.325633 63.314544 -7.307298 1.070042 -6.076195 7.310398 0.007964 -0.111785 0.008875 -3.167698 -11.899510 5.911617 25.571408 75.169752 27.206398 0.890600 -9.554271 -5.173444 0.027962 0.134394 0.010851
-58.631743 61.985185 15.383348 174.595867 -53.011415 -0.634297 4.336599 27.504496 1.531848 0.685632 4.869080 0.129229 1.078854 7.696158 0.233157 3.342993 22.311450 1.130651 1.865077 15.869390 2.104249 2.739236 -6.358939 3.218622 7.571774 5.831348 5.232205 -3.300766 -14.082702 -13.851211 -79.002914 -49.988201 123.811738 -1.030472 6.379531 -4.915876 -10.965599 3.099248 -1.079467 -1.315684 -12.013796 17.489240 66.207039 -47.366282 -111.058797 21.531345 1.907592 14.665181 0.304306 -14.201555 -2.719172 -4.315112 63.314471 -7.292732 1.071787 -6.075440 7.302459 0.005454 -0.112674 0.013209 -3.170337 -11.900716 5.907066 25.571027 75.164299 27.202942 0.887571 -9.552791 -5.170731 0.027311 0.132774 0.011132
